#!OML:ASF I:\Actors\actors\Patient Classification 2\Patient 1\Session 1\actor1.ASF
:FULLY-SPECIFIED
:DEGREES
947
root -0.612004 18.8267 5.20884 18.7911 10.976 -10.2627
lowerback 31.2979 2.24689 -3.43275
upperback 10.0874 1.43154 -5.12791
thorax -5.61269 0.754495 -4.27395
lowerneck 13.6844 -21.0485 -13.7759
upperneck 10.3004 -30.9596 19.6641
head 6.31771 -15.8632 6.49155
rclavicle -2.06736e-014 -1.59028e-014
rhumerus 24.3757 36.0831 14.0948
rradius 120.762
rwrist -87.5229
rhand 56.1005 -608.649
rfingers 7.12502
rthumb 73.3218 91.7939
lclavicle -2.06736e-014 -1.59028e-014
lhumerus -45.6712 -15.1182 75.2826
lradius 89.557
lwrist 22.6228
lhand -15.0774 -23.9938
lfingers 7.12502
lthumb 11.0901 5.69316
rfemur -14.38 -8.47721 27.93
rtibia 1.35174e-014
rfoot -12.7704 -14.6327
rtoes -9.01214
lfemur -36.7357 -2.70437 -0.528241
ltibia 33.3845
lfoot -16.8487 5.99321
ltoes -56.4294
948
root -0.610797 18.8266 5.19987 18.8113 10.9485 -10.2481
lowerback 31.2693 2.21401 -3.32245
upperback 10.0907 1.4212 -5.16633
thorax -5.5932 0.75133 -4.37632
lowerneck 13.6563 -21.0981 -13.6675
upperneck 10.3554 -31.0168 19.6494
head 6.33117 -15.8854 6.46373
rclavicle 6.99722e-014 3.18055e-014
rhumerus 23.5768 35.9021 13.8497
rradius 121.416
rwrist -87.8403
rhand 55.9363 -608.377
rfingers 7.12502
rthumb 73.2506 92.5591
lclavicle 6.99722e-014 3.18055e-014
lhumerus -45.609 -15.227 75.1884
lradius 89.5445
lwrist 22.5475
lhand -15.0093 -23.938
lfingers 7.12502
lthumb 11.1558 5.74546
rfemur -14.4288 -8.45293 27.9021
rtibia 1.90833e-014
rfoot -12.8153 -14.5941
rtoes -8.63199
lfemur -36.7385 -2.73579 -0.533259
ltibia 33.3265
lfoot -16.8565 6.04675
ltoes -56.4128
949
root -0.610942 18.8261 5.19212 18.802 10.913 -10.2269
lowerback 31.2842 2.196 -3.24533
upperback 10.0969 1.41691 -5.20471
thorax -5.59033 0.750709 -4.46362
lowerneck 13.525 -21.1524 -13.5057
upperneck 10.4908 -31.0711 19.5714
head 6.36644 -15.8953 6.39876
rclavicle 9.54166e-015 1.43125e-014
rhumerus 22.8696 35.7196 13.6148
rradius 121.999
rwrist -87.9553
rhand 55.9977 -608.156
rfingers 7.12502
rthumb 73.2774 92.5963
lclavicle 9.54166e-015 1.43125e-014
lhumerus -45.5453 -15.38 75.088
lradius 89.5515
lwrist 22.5615
lhand -15.0182 -23.8814
lfingers 7.12502
lthumb 11.1472 5.80252
rfemur -14.4372 -8.42539 27.8674
rtibia -4.77083e-015
rfoot -12.8697 -14.5794
rtoes -8.39123
lfemur -36.7198 -2.67393 -0.578806
ltibia 33.2996
lfoot -16.8356 6.02031
ltoes -56.4665
950
root -0.610876 18.8251 5.1825 18.79 10.8672 -10.1678
lowerback 31.3069 2.20325 -3.21787
upperback 10.1081 1.42996 -5.23854
thorax -5.58537 0.757932 -4.52332
lowerneck 13.4499 -21.2301 -13.2838
upperneck 10.5303 -31.1403 19.5062
head 6.35772 -15.9181 6.3405
rclavicle -6.04305e-014 1.27222e-014
rhumerus 22.2694 35.5301 13.5026
rradius 122.535
rwrist -88.0774
rhand 56.4981 -607.763
rfingers 7.12502
rthumb 73.4888 91.47
lclavicle -6.04305e-014 1.27222e-014
lhumerus -45.4958 -15.5531 75.024
lradius 89.5785
lwrist 22.5922
lhand -15.0011 -23.8721
lfingers 7.12502
lthumb 11.1637 5.81088
rfemur -14.4452 -8.4016 27.7919
rtibia -2.14687e-014
rfoot -12.8728 -14.6133
rtoes -8.64451
lfemur -36.7063 -2.50912 -0.714963
ltibia 33.2792
lfoot -16.7901 5.91845
ltoes -56.6086
951
root -0.611011 18.8235 5.17115 18.8139 10.8414 -10.139
lowerback 31.2749 2.20385 -3.17894
upperback 10.108 1.44298 -5.24926
thorax -5.56906 0.764757 -4.56107
lowerneck 13.5528 -21.293 -13.1069
upperneck 10.353 -31.1937 19.5811
head 6.28009 -15.9543 6.35753
rclavicle 5.56597e-014 3.33958e-014
rhumerus 21.6511 35.4422 13.4049
rradius 123.132
rwrist -88.4092
rhand 56.7448 -607.32
rfingers 7.12502
rthumb 73.5886 91.1489
lclavicle 5.56597e-014 3.33958e-014
lhumerus -45.4782 -15.6881 74.9968
lradius 89.5848
lwrist 22.5904
lhand -15.0189 -23.9564
lfingers 7.12502
lthumb 11.1465 5.7275
rfemur -14.5027 -8.37971 27.7626
rtibia 5.725e-014
rfoot -12.886 -14.6214
rtoes -8.71579
lfemur -36.7534 -2.39198 -0.787099
ltibia 33.2674
lfoot -16.7464 5.83914
ltoes -56.6579
952
root -0.613063 18.8218 5.16102 18.827 10.8046 -10.1336
lowerback 31.2564 2.20034 -3.16364
upperback 10.1044 1.44388 -5.24611
thorax -5.56455 0.765101 -4.56585
lowerneck 13.6454 -21.3223 -13.0173
upperneck 10.1544 -31.2166 19.6981
head 6.21241 -15.9782 6.39768
rclavicle 1.27222e-014 1.43125e-014
rhumerus 21.0553 35.4194 13.2789
rradius 123.753
rwrist -88.8267
rhand 56.7434 -607.139
rfingers 7.12502
rthumb 73.588 91.334
lclavicle 1.27222e-014 1.43125e-014
lhumerus -45.4777 -15.7497 74.9865
lradius 89.5749
lwrist 22.588
lhand -15.0916 -24.0349
lfingers 7.12502
lthumb 11.0764 5.65277
rfemur -14.5422 -8.33982 27.7543
rtibia 3.73715e-014
rfoot -12.9602 -14.5832
rtoes -8.12654
lfemur -36.7847 -2.38313 -0.779768
ltibia 33.2725
lfoot -16.7539 5.83063
ltoes -56.5903
953
root -0.615946 18.8208 5.1525 18.8274 10.751 -10.1113
lowerback 31.2643 2.19753 -3.1948
upperback 10.1105 1.43101 -5.24428
thorax -5.56256 0.75852 -4.54138
lowerneck 13.5852 -21.3569 -12.9568
upperneck 10.1311 -31.2499 19.6847
head 6.20829 -15.9907 6.37663
rclavicle 7.79236e-014 -4.77083e-014
rhumerus 20.5604 35.3738 13.1403
rradius 124.346
rwrist -89.2103
rhand 56.7717 -607.014
rfingers 7.12502
rthumb 73.5992 91.3717
lclavicle 7.79236e-014 -4.77083e-014
lhumerus -45.4705 -15.7544 74.9634
lradius 89.5776
lwrist 22.5961
lhand -15.0982 -24.0424
lfingers 7.12502
lthumb 11.07 5.64563
rfemur -14.5602 -8.29228 27.7204
rtibia 4.53229e-014
rfoot -13.0236 -14.5571
rtoes -7.74688
lfemur -36.7936 -2.40587 -0.778947
ltibia 33.2897
lfoot -16.8512 5.83462
ltoes -56.5035
954
root -0.6186 18.8192 5.14241 18.8264 10.7306 -10.1421
lowerback 31.2676 2.17071 -3.12939
upperback 10.1148 1.41621 -5.24401
thorax -5.55884 0.751956 -4.57376
lowerneck 13.5611 -21.3885 -12.9061
upperneck 10.1173 -31.2822 19.6696
head 6.20284 -16.0048 6.36041
rclavicle 2.22639e-014 3.18055e-014
rhumerus 20.0404 35.3089 12.8803
rradius 124.883
rwrist -89.3982
rhand 56.9424 -606.65
rfingers 7.12502
rthumb 73.6663 91.2002
lclavicle 2.22639e-014 3.18055e-014
lhumerus -45.4538 -15.7782 74.9187
lradius 89.5679
lwrist 22.5809
lhand -15.0945 -24.0078
lfingers 7.12502
lthumb 11.0736 5.68006
rfemur -14.5917 -8.25592 27.7547
rtibia 3.02153e-014
rfoot -13.0263 -14.5601
rtoes -7.91301
lfemur -36.8285 -2.37838 -0.735083
ltibia 33.3009
lfoot -16.91 5.81411
ltoes -56.4616
955
root -0.619884 18.8181 5.13091 18.8105 10.7205 -10.1706
lowerback 31.2647 2.10245 -2.97557
upperback 10.1396 1.37356 -5.28993
thorax -5.52737 0.734279 -4.69928
lowerneck 13.6267 -21.3792 -12.8512
upperneck 9.98796 -31.2633 19.772
head 6.157 -16.005 6.40054
rclavicle -3.02153e-014 2.8625e-014
rhumerus 19.4684 35.1393 12.4757
rradius 125.412
rwrist -89.566
rhand 56.9479 -606.005
rfingers 7.12502
rthumb 73.6684 91.8287
lclavicle -3.02153e-014 2.8625e-014
lhumerus -45.395 -15.8392 74.8145
lradius 89.5396
lwrist 22.5493
lhand -15.1048 -23.9224
lfingers 7.12502
lthumb 11.0637 5.76596
rfemur -14.61 -8.23358 27.7834
rtibia -2.8625e-014
rfoot -13.0014 -14.5744
rtoes -8.03126
lfemur -36.8502 -2.35767 -0.704266
ltibia 33.2994
lfoot -16.8999 5.83194
ltoes -56.5344
956
root -0.620652 18.8185 5.12119 18.7981 10.677 -10.1193
lowerback 31.5018 2.12308 -3.0698
upperback 10.0145 1.35032 -5.25157
thorax -5.78241 0.718979 -4.60863
lowerneck 13.6133 -21.4123 -12.734
upperneck 10.1043 -31.2768 19.5568
head 6.14373 -16.0012 6.32438
rclavicle -3.49861e-014 9.54166e-015
rhumerus 19.0059 35.1049 12.2471
rradius 126.027
rwrist -89.7512
rhand 57.1502 -605.274
rfingers 7.12502
rthumb 73.7459 91.9204
lclavicle -3.49861e-014 9.54166e-015
lhumerus -45.7288 -16.0949 74.903
lradius 89.7504
lwrist 22.643
lhand -15.1982 -23.7547
lfingers 7.12502
lthumb 10.9736 5.93847
rfemur -14.6178 -8.20975 27.7147
rtibia -3.10104e-014
rfoot -12.9883 -14.5865
rtoes -8.14632
lfemur -36.8451 -2.3585 -0.765672
ltibia 33.2902
lfoot -16.8936 5.864
ltoes -56.6435
957
root -0.62324 18.8187 5.11193 18.7833 10.6282 -10.0793
lowerback 31.478 2.10009 -3.12808
upperback 10.0743 1.31067 -5.2495
thorax -5.70677 0.700442 -4.5552
lowerneck 13.3698 -21.4404 -12.6085
upperneck 10.265 -31.294 19.4153
head 6.19137 -15.9853 6.23603
rclavicle 3.49861e-014 -4.77083e-015
rhumerus 18.6839 34.7725 11.9641
rradius 126.56
rwrist -90.0564
rhand 57.6616 -604.67
rfingers 7.12502
rthumb 73.9323 90.8805
lclavicle 3.49861e-014 -4.77083e-015
lhumerus -45.9216 -16.4006 74.8648
lradius 90.1325
lwrist 22.8805
lhand -15.4163 -23.602
lfingers 7.12502
lthumb 10.7632 6.10229
rfemur -14.6281 -8.17567 27.6601
rtibia 2.78299e-014
rfoot -12.9917 -14.5799
rtoes -8.22897
lfemur -36.8353 -2.29584 -0.828636
ltibia 33.2738
lfoot -16.8452 5.84502
ltoes -56.716
958
root -0.625178 18.818 5.10205 18.7685 10.6126 -10.0521
lowerback 31.4306 2.0542 -3.10007
upperback 10.1415 1.27042 -5.24309
thorax -5.61068 0.68252 -4.54539
lowerneck 13.3329 -21.4442 -12.5999
upperneck 10.2267 -31.2983 19.4573
head 6.1912 -15.987 6.24266
rclavicle 1.27222e-014 2.54444e-014
rhumerus 18.4602 34.4042 11.7731
rradius 127.046
rwrist -90.5428
rhand 58.0556 -604.424
rfingers 7.12502
rthumb 74.0664 270.165
lclavicle 1.27222e-014 2.54444e-014
lhumerus -45.9936 -16.5523 74.8419
lradius 90.3231
lwrist 23.0003
lhand -15.554 -23.5621
lfingers 7.12502
lthumb 10.6304 6.14897
rfemur -14.6439 -8.16957 27.625
rtibia 1.35174e-014
rfoot -12.993 -14.5565
rtoes -8.02638
lfemur -36.8394 -2.28287 -0.859535
ltibia 33.2565
lfoot -16.787 5.84227
ltoes -56.7306
959
root -0.625495 18.8173 5.09357 18.7698 10.62 -9.97856
lowerback 31.3887 1.98855 -3.12662
upperback 10.1877 1.19165 -5.20042
thorax -5.54538 0.64492 -4.45026
lowerneck 13.3299 -21.4269 -12.6609
upperneck 10.1735 -31.2695 19.4186
head 6.17196 -15.9751 6.24287
rclavicle -4.77083e-015 1.11319e-014
rhumerus 18.0763 34.4718 11.4786
rradius 127.677
rwrist -90.3638
rhand 58.3114 -604.313
rfingers 7.12502
rthumb 74.149 270.904
lclavicle -4.77083e-015 1.11319e-014
lhumerus -46.0404 -16.4576 74.8934
lradius 90.3432
lwrist 22.954
lhand -15.5895 -23.5364
lfingers 7.12502
lthumb 10.5962 6.17646
rfemur -14.6652 -8.20202 27.5453
rtibia -1.98785e-014
rfoot -13.0042 -14.5439
rtoes -7.88056
lfemur -36.8618 -2.39228 -0.907083
ltibia 33.2521
lfoot -16.7969 5.88387
ltoes -56.6972
960
root -0.627584 18.8164 5.08466 18.7813 10.6125 -9.92083
lowerback 31.3338 1.93937 -3.10484
upperback 10.2358 1.14452 -5.1974
thorax -5.46807 0.623515 -4.43891
lowerneck 13.225 -21.4506 -12.6067
upperneck 10.2379 -31.2854 19.3214
head 6.18622 -15.9721 6.19358
rclavicle 1.59028e-014 1.11319e-013
rhumerus 17.9034 34.288 11.3381
rradius 128.242
rwrist -90.2779
rhand 58.4603 -604.295
rfingers 7.12502
rthumb 74.1954 271.385
lclavicle 1.59028e-014 1.11319e-013
lhumerus -46.0169 -16.4767 74.8919
lradius 90.3551
lwrist 22.9162
lhand -15.5929 -23.4711
lfingers 7.12502
lthumb 10.5929 6.24191
rfemur -14.7003 -8.21064 27.4873
rtibia -2.3059e-014
rfoot -13.0021 -14.5496
rtoes -7.91949
lfemur -36.8997 -2.43785 -0.952276
ltibia 33.2584
lfoot -16.8071 5.90324
ltoes -56.6986
961
root -0.630289 18.8151 5.07422 18.8027 10.6062 -9.94397
lowerback 31.3103 1.89482 -2.99501
upperback 10.2454 1.12359 -5.18718
thorax -5.44642 0.614546 -4.48226
lowerneck 13.2245 -21.4432 -12.6369
upperneck 10.2333 -31.2875 19.3843
head 6.20073 -15.9742 6.21291
rclavicle 1.59028e-014 4.29375e-014
rhumerus 17.8838 34.0026 11.2943
rradius 128.764
rwrist -90.253
rhand 58.5293 -604.451
rfingers 7.12502
rthumb 74.2165 271.774
lclavicle 1.59028e-014 4.29375e-014
lhumerus -45.9905 -16.51 74.9094
lradius 90.3625
lwrist 22.9052
lhand -15.5494 -23.4528
lfingers 7.12502
lthumb 10.6348 6.25813
rfemur -14.7676 -8.18702 27.5225
rtibia -4.77083e-015
rfoot -12.9511 -14.5701
rtoes -8.18547
lfemur -36.9674 -2.38662 -0.929286
ltibia 33.2668
lfoot -16.7696 5.89325
ltoes -56.7292
